<?xml version="1.0" encoding="UTF-8" standalone="no"?>
<svg
   xmlns:dc="http://purl.org/dc/elements/1.1/"
   xmlns:cc="http://creativecommons.org/ns#"
   xmlns:rdf="http://www.w3.org/1999/02/22-rdf-syntax-ns#"
   xmlns:svg="http://www.w3.org/2000/svg"
   xmlns="http://www.w3.org/2000/svg"
   xmlns:sodipodi="http://sodipodi.sourceforge.net/DTD/sodipodi-0.dtd"
   xmlns:inkscape="http://www.inkscape.org/namespaces/inkscape"
   version="1.1"
   id="Capa_1"
   x="0px"
   y="0px"
   viewBox="0 0 35.220163 50.454251"
   xml:space="preserve"
   sodipodi:docname="errorUpArrow.svg"
   width="35.220161"
   height="50.45425"
   inkscape:version="1.0 (4035a4fb49, 2020-05-01)"><metadata
   id="metadata41"><rdf:RDF><cc:Work
       rdf:about=""><dc:format>image/svg+xml</dc:format><dc:type
         rdf:resource="http://purl.org/dc/dcmitype/StillImage" /><dc:title></dc:title></cc:Work></rdf:RDF></metadata><defs
   id="defs39" /><sodipodi:namedview
   inkscape:document-rotation="0"
   pagecolor="#ffffff"
   bordercolor="#666666"
   borderopacity="1"
   objecttolerance="10"
   gridtolerance="10"
   guidetolerance="10"
   inkscape:pageopacity="0"
   inkscape:pageshadow="2"
   inkscape:window-width="1366"
   inkscape:window-height="705"
   id="namedview37"
   showgrid="false"
   fit-margin-top="0"
   fit-margin-left="0"
   fit-margin-right="0"
   fit-margin-bottom="0"
   inkscape:zoom="5.3315895"
   inkscape:cx="6.836588"
   inkscape:cy="23.952149"
   inkscape:window-x="-8"
   inkscape:window-y="-8"
   inkscape:window-maximized="1"
   inkscape:current-layer="g4" />
<g
   id="g4"
   transform="rotate(-90,21.418616,29.03541)">
	<path
   style="fill:#f90002;fill-opacity:1"
   d="m 24.974776,42.358974 24.229,-15.237 c 1.667,-1.048 1.667,-2.747 0,-3.795 l -24.229,-15.232 c -1.667,-1.048 -2.801,-0.316 -2.532,1.635 l 0.885,5.43 c 0.269,1.95 -1.11,3.531 -3.079,3.531 h -16.683 c -1.969,0 -3.5660000316,1.596 -3.5660000316,3.565 v 5.935 c 0,1.97 1.5960000316,3.566 3.5660000316,3.566 h 16.682 c 1.969,0 3.348,1.582 3.079,3.531 l -0.885,5.436 c -0.268,1.95 0.866,2.683 2.533,1.635 z"
   id="path2" />
</g>
<g
   id="g6"
   transform="rotate(-90,-3.8082851,3.8085349)">
</g>
<g
   id="g8"
   transform="rotate(-90,-3.8082851,3.8085349)">
</g>
<g
   id="g10"
   transform="rotate(-90,-3.8082851,3.8085349)">
</g>
<g
   id="g12"
   transform="rotate(-90,-3.8082851,3.8085349)">
</g>
<g
   id="g14"
   transform="rotate(-90,-3.8082851,3.8085349)">
</g>
<g
   id="g16"
   transform="rotate(-90,-3.8082851,3.8085349)">
</g>
<g
   id="g18"
   transform="rotate(-90,-3.8082851,3.8085349)">
</g>
<g
   id="g20"
   transform="rotate(-90,-3.8082851,3.8085349)">
</g>
<g
   id="g22"
   transform="rotate(-90,-3.8082851,3.8085349)">
</g>
<g
   id="g24"
   transform="rotate(-90,-3.8082851,3.8085349)">
</g>
<g
   id="g26"
   transform="rotate(-90,-3.8082851,3.8085349)">
</g>
<g
   id="g28"
   transform="rotate(-90,-3.8082851,3.8085349)">
</g>
<g
   id="g30"
   transform="rotate(-90,-3.8082851,3.8085349)">
</g>
<g
   id="g32"
   transform="rotate(-90,-3.8082851,3.8085349)">
</g>
<g
   id="g34"
   transform="rotate(-90,-3.8082851,3.8085349)">
</g>
</svg>
