<?xml version="1.0" encoding="UTF-8" standalone="no"?>
<svg
   xmlns:dc="http://purl.org/dc/elements/1.1/"
   xmlns:cc="http://creativecommons.org/ns#"
   xmlns:rdf="http://www.w3.org/1999/02/22-rdf-syntax-ns#"
   xmlns:svg="http://www.w3.org/2000/svg"
   xmlns="http://www.w3.org/2000/svg"
   xmlns:sodipodi="http://sodipodi.sourceforge.net/DTD/sodipodi-0.dtd"
   xmlns:inkscape="http://www.inkscape.org/namespaces/inkscape"
   version="1.1"
   width="199.8"
   height="199.8"
   viewBox="0 0 199.8 199.8"
   xml:space="preserve"
   id="svg36"
   sodipodi:docname="facebook.svg"
   inkscape:version="1.0 (4035a4fb49, 2020-05-01)"><metadata
   id="metadata40"><rdf:RDF><cc:Work
       rdf:about=""><dc:format>image/svg+xml</dc:format><dc:type
         rdf:resource="http://purl.org/dc/dcmitype/StillImage" /><dc:title></dc:title></cc:Work></rdf:RDF></metadata><sodipodi:namedview
   fit-margin-bottom="0"
   fit-margin-right="0"
   fit-margin-left="0"
   fit-margin-top="0"
   inkscape:document-rotation="0"
   pagecolor="#ffffff"
   bordercolor="#666666"
   borderopacity="1"
   objecttolerance="10"
   gridtolerance="10"
   guidetolerance="10"
   inkscape:pageopacity="0"
   inkscape:pageshadow="2"
   inkscape:window-width="1920"
   inkscape:window-height="1017"
   id="namedview38"
   showgrid="false"
   inkscape:zoom="1.3675"
   inkscape:cx="99.9"
   inkscape:cy="129.15046"
   inkscape:window-x="-8"
   inkscape:window-y="-8"
   inkscape:window-maximized="1"
   inkscape:current-layer="square-2" />
<desc
   id="desc26">Created with Fabric.js 3.6.2</desc>
<defs
   id="defs28">
</defs>
<g
   transform="matrix(3.33,0,0,3.33,99.9,99.9)"
   id="square-2">
<path
   style="opacity:1;fill:#add8e6;fill-opacity:1;fill-rule:evenodd;stroke:none;stroke-width:1;stroke-linecap:butt;stroke-linejoin:miter;stroke-miterlimit:4;stroke-dasharray:none;stroke-dashoffset:0"
   transform="translate(-130,-30)"
   d="m 102.99594,0 h 54.00812 C 158.65867,0 160,1.3373097 160,2.9959374 V 57.004063 C 160,58.658673 158.66269,60 157.00406,60 H 102.99594 C 101.34133,60 100,58.66269 100,57.004063 V 2.9959374 C 100,1.3413269 101.33731,0 102.99594,0 Z"
   stroke-linecap="round"
   id="path30"
   sodipodi:nodetypes="sssssssss" />
</g>
<g
   transform="matrix(3.33,0,0,3.33,99.95,99.97)"
   id="facebook">
<path
   style="opacity:1;fill:#ffffff;fill-rule:evenodd;stroke:none;stroke-width:1;stroke-linecap:butt;stroke-linejoin:miter;stroke-miterlimit:4;stroke-dasharray:none;stroke-dashoffset:0"
   transform="translate(-121.01,-18.02)"
   d="M 116.46222,35.314313 V 17.998961 h -3.51893 v -5.739605 h 3.51893 V 8.7883864 c 0,-4.6817442 1.39977,-8.05776741 6.52588,-8.05776741 h 6.09826 V 6.45844 h -4.29411 c -2.15036,0 -2.64038,1.4289363 -2.64038,2.9253209 v 2.8755941 l 6.61755,1e-6 -0.90325,5.739605 h -5.7143 v 17.315351 z"
   stroke-linecap="round"
   id="path33" />
</g>
</svg>
