<?xml version="1.0" encoding="UTF-8" standalone="no"?>
<svg
   xmlns:dc="http://purl.org/dc/elements/1.1/"
   xmlns:cc="http://creativecommons.org/ns#"
   xmlns:rdf="http://www.w3.org/1999/02/22-rdf-syntax-ns#"
   xmlns:svg="http://www.w3.org/2000/svg"
   xmlns="http://www.w3.org/2000/svg"
   xmlns:sodipodi="http://sodipodi.sourceforge.net/DTD/sodipodi-0.dtd"
   xmlns:inkscape="http://www.inkscape.org/namespaces/inkscape"
   inkscape:version="1.0 (4035a4fb49, 2020-05-01)"
   height="35.220161"
   width="50.45425"
   sodipodi:docname="forward.svg"
   xml:space="preserve"
   viewBox="0 0 50.454251 35.220163"
   y="0px"
   x="0px"
   id="Capa_1"
   version="1.1"><metadata
   id="metadata41"><rdf:RDF><cc:Work
       rdf:about=""><dc:format>image/svg+xml</dc:format><dc:type
         rdf:resource="http://purl.org/dc/dcmitype/StillImage" /><dc:title></dc:title></cc:Work></rdf:RDF></metadata><defs
   id="defs39" /><sodipodi:namedview
   inkscape:current-layer="g4"
   inkscape:window-maximized="1"
   inkscape:window-y="-8"
   inkscape:window-x="-8"
   inkscape:cy="20.275609"
   inkscape:cx="8.9971701"
   inkscape:zoom="5.3315893"
   fit-margin-bottom="0"
   fit-margin-right="0"
   fit-margin-left="0"
   fit-margin-top="0"
   showgrid="false"
   id="namedview37"
   inkscape:window-height="705"
   inkscape:window-width="1366"
   inkscape:pageshadow="2"
   inkscape:pageopacity="0"
   guidetolerance="10"
   gridtolerance="10"
   objecttolerance="10"
   borderopacity="1"
   bordercolor="#666666"
   pagecolor="#ffffff" />
<g
   transform="rotate(-90,21.418616,21.418366)"
   id="g4">
	<path
   id="path2"
   d="m 8.0948016,24.97475 15.2370004,24.229 c 1.048,1.667 2.747,1.667 3.795,0 l 15.232,-24.229 c 1.048,-1.667 0.316,-2.801 -1.635,-2.532 l -5.43,0.885 c -1.95,0.269 -3.531,-1.11 -3.531,-3.079 v -16.683 c 0,-1.969 -1.596,-3.566 -3.565,-3.566 h -5.935 c -1.97,0 -3.566,1.596 -3.566,3.566 v 16.682 c 0,1.969 -1.582,3.348 -3.531,3.079 l -5.4360004,-0.885 c -1.95,-0.268 -2.683,0.866 -1.635,2.533 z"
   style="fill:#add8e6;fill-opacity:1" />
</g>
<g
   transform="translate(2.241e-4,-7.6167943)"
   id="g6">
</g>
<g
   transform="translate(2.241e-4,-7.6167943)"
   id="g8">
</g>
<g
   transform="translate(2.241e-4,-7.6167943)"
   id="g10">
</g>
<g
   transform="translate(2.241e-4,-7.6167943)"
   id="g12">
</g>
<g
   transform="translate(2.241e-4,-7.6167943)"
   id="g14">
</g>
<g
   transform="translate(2.241e-4,-7.6167943)"
   id="g16">
</g>
<g
   transform="translate(2.241e-4,-7.6167943)"
   id="g18">
</g>
<g
   transform="translate(2.241e-4,-7.6167943)"
   id="g20">
</g>
<g
   transform="translate(2.241e-4,-7.6167943)"
   id="g22">
</g>
<g
   transform="translate(2.241e-4,-7.6167943)"
   id="g24">
</g>
<g
   transform="translate(2.241e-4,-7.6167943)"
   id="g26">
</g>
<g
   transform="translate(2.241e-4,-7.6167943)"
   id="g28">
</g>
<g
   transform="translate(2.241e-4,-7.6167943)"
   id="g30">
</g>
<g
   transform="translate(2.241e-4,-7.6167943)"
   id="g32">
</g>
<g
   transform="translate(2.241e-4,-7.6167943)"
   id="g34">
</g>
</svg>
