<?xml version="1.0" encoding="UTF-8" standalone="no"?>
<svg
   xmlns:dc="http://purl.org/dc/elements/1.1/"
   xmlns:cc="http://creativecommons.org/ns#"
   xmlns:rdf="http://www.w3.org/1999/02/22-rdf-syntax-ns#"
   xmlns:svg="http://www.w3.org/2000/svg"
   xmlns="http://www.w3.org/2000/svg"
   xmlns:sodipodi="http://sodipodi.sourceforge.net/DTD/sodipodi-0.dtd"
   xmlns:inkscape="http://www.inkscape.org/namespaces/inkscape"
   inkscape:version="1.0 (4035a4fb49, 2020-05-01)"
   sodipodi:docname="gitHub.svg"
   id="svg9"
   xml:space="preserve"
   viewBox="0 0 199.89801 199.43303"
   height="199.43303"
   width="199.89801"
   version="1.1"><metadata
   id="metadata13"><rdf:RDF><cc:Work
       rdf:about=""><dc:format>image/svg+xml</dc:format><dc:type
         rdf:resource="http://purl.org/dc/dcmitype/StillImage" /><dc:title></dc:title></cc:Work></rdf:RDF></metadata><sodipodi:namedview
   inkscape:current-layer="svg9"
   inkscape:window-maximized="1"
   inkscape:window-y="-8"
   inkscape:window-x="-8"
   inkscape:cy="99.73393"
   inkscape:cx="99.949005"
   inkscape:zoom="2.125"
   fit-margin-bottom="0"
   fit-margin-right="0"
   fit-margin-left="0"
   fit-margin-top="0"
   showgrid="false"
   id="namedview11"
   inkscape:window-height="1017"
   inkscape:window-width="1920"
   inkscape:pageshadow="2"
   inkscape:pageopacity="0"
   guidetolerance="10"
   gridtolerance="10"
   objecttolerance="10"
   borderopacity="1"
   bordercolor="#666666"
   pagecolor="#ffffff" />
<desc
   id="desc2">Created with Fabric.js 3.6.2</desc>
<defs
   id="defs4">
</defs>
<g
   id="Git"
   transform="matrix(8.33,0,0,8.33,99.949005,99.73393)">
<path
   id="path6"
   stroke-linecap="round"
   d="M 23.56,10.93 13.06,0.43 a 1.54,1.54 0 0 0 -2.12,0 l -2,2 a 0.5,0.5 0 0 0 0,0.71 L 10.74,5 A 0.5,0.5 0 0 0 11.28,5.11 2,2 0 0 1 14,7 2,2 0 0 1 13.85,7.74 0.5,0.5 0 0 0 13.96,8.28 L 15.72,10 A 0.5,0.5 0 0 0 16.26,10.11 2,2 0 1 1 15,12 2,2 0 0 1 15.14,11.29 0.5,0.5 0 0 0 15.03,10.76 L 13.35,9.07 A 0.5,0.5 0 0 0 12.5,9.42 v 5.28 a 0.5,0.5 0 0 0 0.3,0.46 2,2 0 1 1 -1.6,0 0.5,0.5 0 0 0 0.3,-0.46 V 9.28 A 0.5,0.5 0 0 0 11.2,8.82 2,2 0 0 1 10.14,6.26 0.5,0.5 0 0 0 10,5.73 L 8.19,3.88 a 0.5,0.5 0 0 0 -0.71,0 l -7,7 a 1.5,1.5 0 0 0 0,2.12 l 10.5,10.51 a 1.5,1.5 0 0 0 2.12,0 L 23.6,13 a 1.5,1.5 0 0 0 0,-2.12 z"
   transform="translate(-12.04,-11.98)"
   style="opacity:1;fill:#add8e6;fill-rule:nonzero;stroke:none;stroke-width:1;stroke-linecap:butt;stroke-linejoin:miter;stroke-miterlimit:4;stroke-dasharray:none;stroke-dashoffset:0" />
</g>
</svg>
