<?xml version="1.0" encoding="UTF-8" standalone="no"?>
<svg
   xmlns:dc="http://purl.org/dc/elements/1.1/"
   xmlns:cc="http://creativecommons.org/ns#"
   xmlns:rdf="http://www.w3.org/1999/02/22-rdf-syntax-ns#"
   xmlns:svg="http://www.w3.org/2000/svg"
   xmlns="http://www.w3.org/2000/svg"
   xmlns:sodipodi="http://sodipodi.sourceforge.net/DTD/sodipodi-0.dtd"
   xmlns:inkscape="http://www.inkscape.org/namespaces/inkscape"
   version="1.1"
   width="171.52388"
   height="171.17535"
   viewBox="0 0 171.52388 171.17535"
   xml:space="preserve"
   id="svg10"
   sodipodi:docname="instagram.svg"
   inkscape:version="1.0 (4035a4fb49, 2020-05-01)"><metadata
   id="metadata14"><rdf:RDF><cc:Work
       rdf:about=""><dc:format>image/svg+xml</dc:format><dc:type
         rdf:resource="http://purl.org/dc/dcmitype/StillImage" /><dc:title></dc:title></cc:Work></rdf:RDF></metadata><sodipodi:namedview
   fit-margin-bottom="0"
   fit-margin-right="0"
   fit-margin-left="0"
   fit-margin-top="0"
   inkscape:document-rotation="0"
   pagecolor="#ffffff"
   bordercolor="#666666"
   borderopacity="1"
   objecttolerance="10"
   gridtolerance="10"
   guidetolerance="10"
   inkscape:pageopacity="0"
   inkscape:pageshadow="2"
   inkscape:window-width="1920"
   inkscape:window-height="1017"
   id="namedview12"
   showgrid="false"
   inkscape:zoom="2.125"
   inkscape:cx="86.023865"
   inkscape:cy="97.264705"
   inkscape:window-x="-8"
   inkscape:window-y="-8"
   inkscape:window-maximized="1"
   inkscape:current-layer="g8" />
<desc
   id="desc2">Created with Fabric.js 3.6.2</desc>
<defs
   id="defs4">
</defs>
<g
   transform="translate(86.023865,97.264705)"
   id="g8">
	<path
   style="fill:#add8e6;fill-opacity:1"
   d="m -66.914426,73.170264 c -9.29784,-1.86785 -16.21754,-9.08486 -18.06848,-18.84482 -1.43304,-7.55641 -1.3661,-126.364358 0.075,-133.083918 1.42268,-6.63371 6.17647,-12.753801 12.39046,-15.951631 l 4.96407,-2.5546 H -0.02668446 67.50001 l 4.72666,2.32791 c 5.16943,2.54597 9.19574,6.743751 11.67488,12.172091 1.41426,3.09667 1.59846,11.27846 1.59846,70.999998 v 67.5 l -2.32791,4.72666 c -2.54597,5.16943 -6.74376,9.19574 -12.17209,11.67488 -3.08022,1.40675 -11.29592,1.61776 -68.5000005,1.75935 -35.7499995,0.0885 -66.9864855,-0.23817 -69.4144255,-0.72592 z M 16.10657,46.860924 c 19.95776,-7.04528 33.86387,-26.3973 33.86387,-47.12563009 0,-16.22353691 -9.55036,-33.51067791 -23.33407,-42.23709791 -15.68532,-9.93032 -38.554837,-9.79399 -53.505561,0.31895 -27.157995,18.370162 -30.870495,54.650218 -7.919129,77.388978 5.945363,5.89029 15.1917,11.22575 22.373011,12.91 7.9006045,1.85295 21.4000985,1.25886 28.521879,-1.2552 z M -9.8156081,36.736734 C -38.462045,28.685204 -47.889182,-6.7802863 -26.949062,-27.720404 c 7.110707,-7.11071 14.465092,-10.30218 24.9490615,-10.82678 6.77982,-0.33925 9.66866,-0.0131 14.2747805,1.6116 15.90764,5.61106 25.88311,19.539919 25.88311,36.14085771 0,12.71509029 -5.30755,23.40231029 -15.41664,31.04277029 -9.09999,6.87778 -22.01471046,9.45173 -32.5568581,6.48869 z M 5.6836795,11.291914 C 10.67272,9.0268139 13,5.0913139 13,-1.0801863 13,-13.5483 -2.9547735,-18.265425 -10.911704,-8.1498263 c -3.930993,4.99745 -2.220498,15.1028002 3.1522725,18.6231803 4.707437,3.08443 8.00952104,3.2855 13.443111,0.81856 z M -39.571429,-67.336134 c 0.864286,-0.86429 1.571429,-2.85714 1.571429,-4.42857 0,-5.16112 -1.957385,-6 -14,-6 -12.042616,0 -13.999996,0.83888 -13.999996,6 0,5.16112 1.95738,6 13.999996,6 8.536797,0 11.192982,-0.33584 12.428571,-1.57143 z m 89.999999,0 C 51.29286,-68.200424 52,-70.193274 52,-71.764704 c 0,-3.64426 -2.35574,-6 -6,-6 -1.57143,0 -3.56429,0.70714 -4.42857,1.57143 -0.86429,0.86428 -1.57143,2.85714 -1.57143,4.42857 0,3.64426 2.35574,6 6,6 1.57143,0 3.56429,-0.70714 4.42857,-1.57143 z m 14,0 C 65.29286,-68.200424 66,-70.193274 66,-71.764704 c 0,-3.64426 -2.35574,-6 -6,-6 -1.57143,0 -3.56429,0.70714 -4.42857,1.57143 -0.86429,0.86428 -1.57143,2.85714 -1.57143,4.42857 0,3.64426 2.35574,6 6,6 1.57143,0 3.56429,-0.70714 4.42857,-1.57143 z"
   id="path843" />
</g>
</svg>
