<?xml version="1.0" encoding="UTF-8" standalone="no"?>
<svg
   xmlns:dc="http://purl.org/dc/elements/1.1/"
   xmlns:cc="http://creativecommons.org/ns#"
   xmlns:rdf="http://www.w3.org/1999/02/22-rdf-syntax-ns#"
   xmlns:svg="http://www.w3.org/2000/svg"
   xmlns="http://www.w3.org/2000/svg"
   xmlns:sodipodi="http://sodipodi.sourceforge.net/DTD/sodipodi-0.dtd"
   xmlns:inkscape="http://www.inkscape.org/namespaces/inkscape"
   inkscape:version="1.0 (4035a4fb49, 2020-05-01)"
   sodipodi:docname="logout.svg"
   viewBox="0 0 18 18"
   height="18"
   width="18"
   id="mdi-logout-variant"
   version="1.1">
  <metadata
     id="metadata9">
    <rdf:RDF>
      <cc:Work
         rdf:about="">
        <dc:format>image/svg+xml</dc:format>
        <dc:type
           rdf:resource="http://purl.org/dc/dcmitype/StillImage" />
        <dc:title></dc:title>
      </cc:Work>
    </rdf:RDF>
  </metadata>
  <defs
     id="defs7" />
  <sodipodi:namedview
     inkscape:current-layer="mdi-logout-variant"
     inkscape:window-maximized="1"
     inkscape:window-y="-8"
     inkscape:window-x="-8"
     inkscape:cy="6.7411765"
     inkscape:cx="9"
     inkscape:zoom="35.416667"
     fit-margin-bottom="0"
     fit-margin-right="0"
     fit-margin-left="0"
     fit-margin-top="0"
     showgrid="false"
     id="namedview5"
     inkscape:window-height="1017"
     inkscape:window-width="1920"
     inkscape:pageshadow="2"
     inkscape:pageopacity="0"
     guidetolerance="10"
     gridtolerance="10"
     objecttolerance="10"
     borderopacity="1"
     bordercolor="#666666"
     pagecolor="#ffffff" />
  <path
     style="fill:#047cb8;fill-opacity:1;opacity:0.51"
     id="path2"
     d="M 11.08,12.59 13.67,10 H 4 V 8 h 9.67 L 11.08,5.41 12.5,4 l 5,5 -5,5 -1.42,-1.41 M 16,0 a 2,2 0 0 1 2,2 v 4.67 l -2,-2 V 2 H 2 v 14 h 14 v -2.67 l 2,-2 V 16 a 2,2 0 0 1 -2,2 H 2 C 0.89,18 0,17.1 0,16 V 2 C 0,0.89 0.89,0 2,0 Z" />
</svg>
