<?xml version="1.0" encoding="UTF-8" standalone="no"?>
<svg
   xmlns:dc="http://purl.org/dc/elements/1.1/"
   xmlns:cc="http://creativecommons.org/ns#"
   xmlns:rdf="http://www.w3.org/1999/02/22-rdf-syntax-ns#"
   xmlns:svg="http://www.w3.org/2000/svg"
   xmlns="http://www.w3.org/2000/svg"
   xmlns:sodipodi="http://sodipodi.sourceforge.net/DTD/sodipodi-0.dtd"
   xmlns:inkscape="http://www.inkscape.org/namespaces/inkscape"
   version="1.1"
   width="192"
   height="192"
   viewBox="0 0 192 192"
   xml:space="preserve"
   id="svg12"
   sodipodi:docname="vk.svg"
   inkscape:version="1.0 (4035a4fb49, 2020-05-01)"><metadata
   id="metadata16"><rdf:RDF><cc:Work
       rdf:about=""><dc:format>image/svg+xml</dc:format><dc:type
         rdf:resource="http://purl.org/dc/dcmitype/StillImage" /><dc:title></dc:title></cc:Work></rdf:RDF></metadata><sodipodi:namedview
   fit-margin-bottom="0"
   fit-margin-right="0"
   fit-margin-left="0"
   fit-margin-top="0"
   inkscape:document-rotation="0"
   pagecolor="#ffffff"
   bordercolor="#666666"
   borderopacity="1"
   objecttolerance="10"
   gridtolerance="10"
   guidetolerance="10"
   inkscape:pageopacity="0"
   inkscape:pageshadow="2"
   inkscape:window-width="1920"
   inkscape:window-height="1017"
   id="namedview14"
   showgrid="false"
   inkscape:zoom="2.125"
   inkscape:cx="96"
   inkscape:cy="96"
   inkscape:window-x="-8"
   inkscape:window-y="-8"
   inkscape:window-maximized="1"
   inkscape:current-layer="g843" />
<desc
   id="desc2">Created with Fabric.js 3.6.2</desc>
<defs
   id="defs4">


</defs>
<g
   transform="translate(-104,-104)"
   id="g843"><path
     style="fill:#add8e6;fill-opacity:1;fill-rule:nonzero;stroke:none;stroke-width:4;stroke-linecap:butt;stroke-linejoin:miter;stroke-miterlimit:4;stroke-dasharray:none;stroke-dashoffset:0"
     d="M 280,104 H 120 c -8.8,0 -16,7.2 -16,16 v 160 c 0,8.8 7.2,16 16,16 h 160 c 8.8,0 16,-7.2 16,-16 V 120 c 0,-8.8 -7.2,-16 -16,-16 z"
     stroke-linecap="round"
     id="path6" /></g>
<g
   transform="matrix(4,0,0,4,95.98,96)"
   id="VK_1_">
<path
   style="opacity:1;fill:#ffffff;fill-rule:nonzero;stroke:none;stroke-width:1;stroke-linecap:butt;stroke-linejoin:miter;stroke-miterlimit:4;stroke-dasharray:none;stroke-dashoffset:0"
   transform="translate(-24.99,-25)"
   d="m 26,34 c 1,0 1,-1.4 1,-2 0,-1 1,-2 2,-2 1,0 2.7,1.7 4,3 1,1 1,1 2,1 1,0 3,0 3,0 0,0 2,-0.1 2,-2 0,-0.6 -0.7,-1.7 -3,-4 -2,-2 -3,-1 0,-5 1.8,-2.5 3.2,-4.7 3,-5.3 -0.2,-0.6 -5.3,-1.6 -6,-0.7 -2,3 -2.4,3.7 -3,5 -1,2 -1.1,3 -2,3 -0.9,0 -1,-1.9 -1,-3 0,-3.3 0.5,-5.6 -1,-6 0,0 -2,0 -3,0 -1.6,0 -3,1 -3,1 0,0 -1.2,1 -1,1 0.3,0 2,-0.4 2,1 0,1 0,2 0,2 0,0 0,4 -1,4 -1,0 -3,-4 -5,-7 -0.8,-1.2 -1,-1 -2,-1 -1.1,0 -2,0 -3,0 -1,0 -1.1,0.6 -1,1 2,5 3.4,8.1 7.2,12.1 3.5,3.6 5.8,3.8 7.8,3.9 0.5,0 0,0 1,0 z"
   stroke-linecap="round"
   id="path9" />
</g>
</svg>
