<?xml version="1.0" encoding="UTF-8" standalone="no"?>
<svg
   xmlns:dc="http://purl.org/dc/elements/1.1/"
   xmlns:cc="http://creativecommons.org/ns#"
   xmlns:rdf="http://www.w3.org/1999/02/22-rdf-syntax-ns#"
   xmlns:svg="http://www.w3.org/2000/svg"
   xmlns="http://www.w3.org/2000/svg"
   xmlns:sodipodi="http://sodipodi.sourceforge.net/DTD/sodipodi-0.dtd"
   xmlns:inkscape="http://www.inkscape.org/namespaces/inkscape"
   version="1.1"
   width="179.36633"
   height="179.09178"
   viewBox="0 0 179.36633 179.09178"
   xml:space="preserve"
   id="svg10"
   sodipodi:docname="website.svg"
   inkscape:version="1.0 (4035a4fb49, 2020-05-01)"><metadata
   id="metadata14"><rdf:RDF><cc:Work
       rdf:about=""><dc:format>image/svg+xml</dc:format><dc:type
         rdf:resource="http://purl.org/dc/dcmitype/StillImage" /><dc:title></dc:title></cc:Work></rdf:RDF></metadata><sodipodi:namedview
   fit-margin-bottom="0"
   fit-margin-right="0"
   fit-margin-left="0"
   fit-margin-top="0"
   inkscape:document-rotation="0"
   pagecolor="#ffffff"
   bordercolor="#666666"
   borderopacity="1"
   objecttolerance="10"
   gridtolerance="10"
   guidetolerance="10"
   inkscape:pageopacity="0"
   inkscape:pageshadow="2"
   inkscape:window-width="1570"
   inkscape:window-height="1021"
   id="namedview12"
   showgrid="false"
   inkscape:zoom="2.125"
   inkscape:cx="87.983974"
   inkscape:cy="105.4168"
   inkscape:window-x="0"
   inkscape:window-y="0"
   inkscape:window-maximized="0"
   inkscape:current-layer="g8" />
<desc
   id="desc2">Created with Fabric.js 3.6.2</desc>
<defs
   id="defs4">
</defs>
<g
   transform="translate(87.983974,86.59327)"
   id="g8">
	<path
   style="fill:#add8e6;fill-opacity:1"
   d="m -10.924785,91.818264 c -33.022908,-4.63907 -61.624767,-28.122296 -72.635057,-59.636166 -3.831213,-10.96578 -4.869679,-19.18565 -4.262852,-33.7421555 0.601758,-14.4349065 2.137553,-21.3221565 7.204581,-32.3088395 11.555313,-25.05503 33.354694,-43.370223 60.000464,-50.410607 11.5825389,-3.060356 30.69883,-3.088353 43,-0.06298 31.28317,7.693854 57.04577,33.078778 65.628125,64.666013 2.80776,10.3339526 3.15307,32.509579 0.66114,42.458039 -1.576165,6.29243 -1.562145,6.56169 0.54655,10.5 1.85914,3.47224 2.16419,5.66291 2.16419,15.54196 0,10.56638 -0.22693,11.96212 -2.79528,17.19221 -9.008025,18.343586 -28.947585,27.557826 -48.299395,22.319536 -6.03044,-1.63237 -6.86499,-1.64367 -11.69949,-0.15851 -12.68149,3.89577 -27.79073812,5.28823 -39.512976,3.64149 z M -22.028699,77.073528 c -8.403233,-8.4043 -16.403145,-20.00476 -19.30937,-28 l -1.181357,-3.25 h -14.299111 c -7.864512,0 -14.294786,0.3375 -14.289499,0.75 0.02059,1.60633 10.329091,14.3792 14.787324,18.32241 6.487505,5.73806 15.288464,11.6173 22.034694,14.7197 5.787729,2.6616 16.334008,6.008446 19.337288,6.136656 0.971028,0.0414 -1.989598,-3.587746 -7.079969,-8.678766 z m 20.9110499,-11.25 v -20 h -18.0134199 -18.01342 l 1.457691,3.48875 c 2.199169,5.26335 9.990355,16.92678 14.799973,22.15561 4.080638,4.43631 17.1579579,14.355646 18.9260049,14.355646 0.463744,0 0.843171,-9.000006 0.843171,-20.000006 z m 16.6769601,12.5 3.43567,-3 -3.64974,-7.07486 c -2.51559,-4.87637 -3.99333,-9.45987 -4.75545,-14.75 -1.0771498,-7.47682 -1.1780898,-7.67514 -3.9065798,-7.67514 H 3.8823509 v 20.06398 20.063996 l 4.1206503,-2.31399 c 2.2663598,-1.272696 5.6666998,-3.663986 7.5563098,-5.313986 z m 6.88022,6.381296 c 4.99864,-1.25868 5.29655,-1.798706 2.42559,-4.396886 -1.96602,-1.77923 -2.09931,-1.75162 -5.25,1.08726 -1.77802,1.60206 -3.66027,3.253826 -4.18277,3.670586 -1.37605,1.09758 1.88113,0.92979 7.00718,-0.36096 z m 43.65911,-3.122776 c 7.21025,-3.30096 14.19171,-10.26201 17.61353,-17.56202 2.30644,-4.9205 2.67018,-6.99062 2.67018,-15.1965 0,-8.18626 -0.36618,-10.28105 -2.64796,-15.14796 -7.10588,-15.15646 -24.75419,-23.54258 -40.88835,-19.4293 -16.54108,4.21701 -27.26743,17.84894 -27.20728,34.57726 0.0591,16.42697 9.64424,29.42079 25.52963,34.608426 6.55909,2.14198 18.07779,1.28726 24.93025,-1.849906 z m -27.96629,-21.46819 c -4.92493,-3.954 -8.25,-7.36248 -8.25,-8.45694 0,-3.02505 3.00323,-2.12054 9.43776,2.84243 3.33423,2.5717 6.55202,5.04145 7.15064,5.48833 0.68651,0.51249 4.43641,-3.15263 10.15543,-9.92582 4.98687,-5.90608 10.01281,-11.73547 11.16876,-12.9542 2.4034,-2.53393 5.51332,-2.02082 4.77868,0.78844 -0.73227,2.80022 -23.0076,28.80342 -24.69127,28.82346 -0.825,0.01 -5.2125,-2.96275 -9.75,-6.6057 z m -83.741474,-22.04033 c -1.223989,-3.03632 -4.481677,-19.61322 -4.495389,-22.875 -0.0072,-1.71875 -0.294387,-4.53125 -0.638137,-6.2500005 l -0.625,-3.125 h -16.018599 -16.0186 l 0.639583,6.8816605 c 0.622482,6.69766 3.120721,16.21972 6.170469,23.51879 l 1.503987,3.59955 h 15.093569 c 13.976904,0 15.041377,-0.12947 14.388117,-1.75 z m 44.4914739,-15.25 V 5.8235275 H -23.404244 -45.690839 l 0.694332,8.0795105 c 0.381883,4.44373 1.68621,12.09373 2.898505,17 l 2.204172,8.92049 h 19.388091 19.3880899 z m 12.6555601,15.25 c 5.16658,-15.25248 16.39876,-25.81062 31.09444,-29.2284605 2.8875,-0.67156 5.25,-1.62614 5.25,-2.12128 0,-0.5064 -9.62494,-0.90026 -22,-0.90026 H 3.8823509 v 17.0000005 17 h 3.5313803 c 2.47074,0 3.7094298,-0.52561 4.1241798,-1.75 z m 73.81856,-26.88918 0.66979,-5.3608205 h -16.57195 c -9.11458,0 -16.57196,0.39145 -16.57196,0.86989 0,0.47845 2.5875,1.38321 5.75,2.01059 7.71157,1.5298305 14.79877,4.9863605 20.25,9.8762305 l 4.5,4.03659 0.65217,-3.03583 c 0.35869,-1.66971 0.95357,-5.4482 1.32195,-8.39665 z M -50.756554,-3.9264675 c 0.29529,-2.0625 0.824374,-6.3947185 1.175741,-9.6271535 0.553279,-5.089935 2.233675,-12.890201 4.071439,-18.8993 0.506566,-1.656366 -0.492094,-1.757766 -14.772981,-1.5 l -15.316274,0.276454 -3.231835,9.527349 c -1.777509,5.240041 -3.533908,12.777541 -3.903109,16.7499996 l -0.671275,7.22264593 h 16.055702 16.055701 z M -1.1176491,-17.176467 v -17 H -20.505739 -39.89383 l -2.204172,8.920487 c -1.212295,4.906269 -2.516622,12.556269 -2.898505,16.9999996 l -0.694332,8.07950793 h 22.286595 22.2865949 z m 48.5680201,9.7499996 c -0.69454,-7.2935526 -2.71694,-17.4697996 -4.67034,-23.4999996 l -1.05278,-3.25 H 22.804801 3.8823509 v 17 16.99999453 h 22.1292101 22.12921 z m 37.92639,2.4999999 c -1.21443,-9.1835225 -2.75554,-15.8150805 -5.2288,-22.4999995 l -2.49733,-6.75 h -15.32344 -15.32344 l 1.4182,4.25 c 1.80322,5.403799 4.4604,20.8217806 4.4604,25.8809895 v 3.86900503 h 16.56127 16.56128 z M -40.315524,-45.53165 c 3.859652,-8.921062 10.151107,-17.737246 18.836022,-26.394817 4.551831,-4.5375 7.797815,-8.25 7.213299,-8.25 -0.584516,0 -3.80168,0.709726 -7.149252,1.577169 -11.860424,3.073345 -24.297471,9.968067 -34.905257,19.350418 -4.458233,3.943208 -14.766736,16.716083 -14.787324,18.322413 -0.0053,0.4125 6.402887,0.74232 14.240387,0.732934 l 14.25,-0.01707 2.302125,-5.32105 z m 39.1978749,-14.644817 c 0,-11 -0.379427,-20 -0.843171,-20 -2.072734,0 -15.4350009,10.452949 -19.8175629,15.502757 -4.721863,5.440768 -11.722785,16.23317 -14.107216,21.747243 l -1.189172,2.75 h 17.978561 17.9785609 z m 39.4408601,17.75 C 35.311461,-52.19205 17.910321,-72.695064 8.1323512,-77.999054 l -4.2500003,-2.305382 v 20.063984 20.063985 h 17.5673901 17.56739 z m 33.86568,-0.877772 c -2.96045,-5.125607 -15.1747,-17.679073 -21.71121,-22.314164 -7.95353,-5.639919 -16.45386,-9.850047 -25.33206,-12.546717 -9.7739,-2.968731 -11.44656,-2.390961 -5.75721,1.988653 6.63239,5.10555 16.76506,18.059364 21.62742,27.648928 l 4.23438,8.351072 h 14.37261 14.3726 z"
   id="path845" /><path
   style="fill:#000000"
   id="path843"
   d="" /><path
   style="fill:#000000"
   id="path841"
   d="" /><path
   style="fill:#000000"
   id="path839"
   d="" />
</g>
</svg>
