<?xml version="1.0" encoding="UTF-8" standalone="no"?>
<svg
   xmlns:dc="http://purl.org/dc/elements/1.1/"
   xmlns:cc="http://creativecommons.org/ns#"
   xmlns:rdf="http://www.w3.org/1999/02/22-rdf-syntax-ns#"
   xmlns:svg="http://www.w3.org/2000/svg"
   xmlns="http://www.w3.org/2000/svg"
   xmlns:sodipodi="http://sodipodi.sourceforge.net/DTD/sodipodi-0.dtd"
   xmlns:inkscape="http://www.inkscape.org/namespaces/inkscape"
   enable-background="new 0 0 128 128"
   id="Social_Icons"
   version="1.1"
   viewBox="0 0 128 128"
   xml:space="preserve"
   sodipodi:docname="youtube.svg"
   width="128"
   height="128"
   inkscape:version="1.0 (4035a4fb49, 2020-05-01)"><metadata
     id="metadata12"><rdf:RDF><cc:Work
         rdf:about=""><dc:format>image/svg+xml</dc:format><dc:type
           rdf:resource="http://purl.org/dc/dcmitype/StillImage" /><dc:title></dc:title></cc:Work></rdf:RDF></metadata><defs
     id="defs10" /><sodipodi:namedview
     inkscape:document-rotation="0"
     pagecolor="#ffffff"
     bordercolor="#666666"
     borderopacity="1"
     objecttolerance="10"
     gridtolerance="10"
     guidetolerance="10"
     inkscape:pageopacity="0"
     inkscape:pageshadow="2"
     inkscape:window-width="1920"
     inkscape:window-height="1017"
     id="namedview8"
     showgrid="false"
     fit-margin-top="0"
     fit-margin-left="0"
     fit-margin-right="0"
     fit-margin-bottom="0"
     inkscape:zoom="6.640625"
     inkscape:cx="64"
     inkscape:cy="93.521235"
     inkscape:window-x="-8"
     inkscape:window-y="-8"
     inkscape:window-maximized="1"
     inkscape:current-layer="Youtube_1_" /><g
     id="_x34__stroke"
     transform="translate(0,-18.667)"><g
       id="Youtube_1_"><rect
         clip-rule="evenodd"
         fill="none"
         fill-rule="evenodd"
         height="128"
         width="128"
         id="rect2"
         x="0"
         y="18.672941" /><path
         clip-rule="evenodd"
         d="m 126.72,56.896941 c 0,0 -1.252,-8.883 -5.088,-12.794 -4.868,-5.136 -10.324,-5.16 -12.824,-5.458 -17.912,-1.305 -44.78,-1.305 -44.78,-1.305 h -0.056 c 0,0 -26.868,0 -44.78,1.305 -2.504,0.298 -7.956,0.322 -12.828,5.458 -3.836,3.912 -5.084,12.794 -5.084,12.794 0,0 -1.28,10.434 -1.28,20.863 v 9.781 c 0,10.432999 1.28,20.862999 1.28,20.862999 0,0 1.248,8.883 5.084,12.794 4.872,5.136 11.268,4.975 14.116,5.511 10.24,0.991 43.52,1.297 43.52,1.297 0,0 26.896,-0.04 44.808,-1.345 2.5,-0.302 7.956,-0.326 12.824,-5.462 3.836,-3.912 5.088,-12.794 5.088,-12.794 0,0 1.28,-10.43 1.28,-20.863999 v -9.781 c 0,-10.429 -1.28,-20.863 -1.28,-20.863 z M 50.784,99.39294 50.78,63.173941 l 34.584,18.172 z"
         fill="#CE1312"
         fill-rule="evenodd"
         id="Youtube"
         style="fill:#add8e6;fill-opacity:1" /></g></g></svg>
