<?xml version="1.0" encoding="UTF-8" standalone="no"?>
<svg
   xmlns:dc="http://purl.org/dc/elements/1.1/"
   xmlns:cc="http://creativecommons.org/ns#"
   xmlns:rdf="http://www.w3.org/1999/02/22-rdf-syntax-ns#"
   xmlns:svg="http://www.w3.org/2000/svg"
   xmlns="http://www.w3.org/2000/svg"
   xmlns:sodipodi="http://sodipodi.sourceforge.net/DTD/sodipodi-0.dtd"
   xmlns:inkscape="http://www.inkscape.org/namespaces/inkscape"
   inkscape:version="1.0 (4035a4fb49, 2020-05-01)"
   height="90.666"
   width="128"
   sodipodi:docname="Youtube_icon-icons.com_66802.svg"
   xml:space="preserve"
   viewBox="0 0 128 90.666"
   version="1.1"
   id="Social_Icons"
   enable-background="new 0 0 128 128"><metadata
     id="metadata12"><rdf:RDF><cc:Work
         rdf:about=""><dc:format>image/svg+xml</dc:format><dc:type
           rdf:resource="http://purl.org/dc/dcmitype/StillImage" /><dc:title></dc:title></cc:Work></rdf:RDF></metadata><defs
     id="defs10" /><sodipodi:namedview
     inkscape:current-layer="Youtube_1_"
     inkscape:window-maximized="1"
     inkscape:window-y="-8"
     inkscape:window-x="-8"
     inkscape:cy="45.333"
     inkscape:cx="64"
     inkscape:zoom="6.640625"
     fit-margin-bottom="0"
     fit-margin-right="0"
     fit-margin-left="0"
     fit-margin-top="0"
     showgrid="false"
     id="namedview8"
     inkscape:window-height="1017"
     inkscape:window-width="1920"
     inkscape:pageshadow="2"
     inkscape:pageopacity="0"
     guidetolerance="10"
     gridtolerance="10"
     objecttolerance="10"
     borderopacity="1"
     bordercolor="#666666"
     pagecolor="#ffffff" /><g
     transform="translate(0,-18.667)"
     id="_x34__stroke"><g
       id="Youtube_1_"><rect
         y="0"
         x="0"
         id="rect2"
         width="128"
         height="128"
         fill-rule="evenodd"
         fill="none"
         clip-rule="evenodd" /><path
         style="fill:#add8e6;fill-opacity:1"
         id="Youtube"
         fill-rule="evenodd"
         fill="#CE1312"
         d="m 126.72,38.224 c 0,0 -1.252,-8.883 -5.088,-12.794 -4.868,-5.136 -10.324,-5.16 -12.824,-5.458 -17.912,-1.305 -44.78,-1.305 -44.78,-1.305 h -0.056 c 0,0 -26.868,0 -44.78,1.305 C 16.688,20.27 11.236,20.294 6.364,25.43 2.528,29.342 1.28,38.224 1.28,38.224 1.28,38.224 0,48.658 0,59.087 v 9.781 c 0,10.433 1.28,20.863 1.28,20.863 0,0 1.248,8.883 5.084,12.794 4.872,5.136 11.268,4.975 14.116,5.511 10.24,0.991 43.52,1.297 43.52,1.297 0,0 26.896,-0.04 44.808,-1.345 2.5,-0.302 7.956,-0.326 12.824,-5.462 3.836,-3.912 5.088,-12.794 5.088,-12.794 0,0 1.28,-10.43 1.28,-20.864 v -9.781 c 0,-10.429 -1.28,-20.863 -1.28,-20.863 z M 50.784,80.72 50.78,44.501 85.364,62.673 Z"
         clip-rule="evenodd" /></g></g></svg>
